<svg width="19" height="21" viewBox="0 0 19 21" fill="none" xmlns="http://www.w3.org/2000/svg">
<path fill-rule="evenodd" clip-rule="evenodd" d="M15.1701 1.3867L17.104 2.67565L10.7682 12.1815L8.24712 13.8688L8.83436 10.8926L15.1701 1.3867ZM17.6586 1.84354C18.1182 2.14984 18.2424 2.7707 17.9361 3.23026L11.6003 12.7361C11.5274 12.8455 11.4337 12.9394 11.3244 13.0126L8.80332 14.6999C8.06326 15.1952 7.09365 14.5489 7.26604 13.6753L7.85328 10.699C7.87872 10.57 7.92935 10.4473 8.00225 10.338L14.338 0.832092C14.6443 0.37253 15.2652 0.24829 15.7247 0.554593L17.6586 1.84354Z" fill="#3A5FE3"/>
<path fill-rule="evenodd" clip-rule="evenodd" d="M2 4.49999C1.72386 4.49999 1.5 4.72385 1.5 4.99999V19C1.5 19.2761 1.72386 19.5 2 19.5H16C16.2761 19.5 16.5 19.2761 16.5 19V7.99999H17.5V19C17.5 19.8284 16.8284 20.5 16 20.5H2C1.17157 20.5 0.5 19.8284 0.5 19V4.99999C0.5 4.17156 1.17157 3.49999 2 3.49999H10V4.49999H2Z" fill="#3A5FE3"/>
</svg>
