<svg xmlns="http://www.w3.org/2000/svg" width="24" height="25" fill="none" viewBox="0 0 24 25">
    <path fill="#4285F4" d="M24 12.693c0-.963-.083-1.665-.264-2.393H12v4.343h6.889c-.139 1.079-.889 2.704-2.556 3.796l-.023.146 3.71 2.691.258.024C22.638 19.259 24 16.255 24 12.693z"/>
    <path fill="#34A853" d="M12.112 24.13c3.297 0 6.366-.919 8.388-2.83l-4-3c-1.031.734-2.57 1.01-4.388 1.01-3.23 0-6.155-2.13-7.132-5.136l.04-.031-3.77 2.977-.05.14c2.009 4.072 6.134 6.87 10.912 6.87z"/>
    <path fill="#FBBC05" d="M5 14.24c-.245-.758-.387-1.57-.387-2.41 0-.84.142-1.652.374-2.41l-.006-.162L1.356 6.3l-.119.06C.451 8.01 0 9.865 0 11.83c0 1.963.451 3.818 1.237 5.47L5 14.24z"/>
    <path fill="#EB4335" d="M11.865 4.82c2.284 0 3.824 1.011 4.703 1.856L20 3.24C17.892 1.233 15.149 0 11.865 0 7.108 0 3 2.798 1 6.87L4.932 10c.987-3.006 3.717-5.18 6.933-5.18z"/>
</svg>
