<svg xmlns="http://www.w3.org/2000/svg" width="221" height="75" fill="none" viewBox="0 0 221 75">
    <path fill="#fff" d="M62.155 56.748c-.923-1.242-1.75-2.356-2.609-3.44-.35-.413-.19-.668.064-1.018 2.354-3.312 3.467-7.006 3.308-11.082-.35-9.267-7.57-16.592-17.05-17.101-8.779-.478-16.795 5.732-18.353 14.871-1.909 11.146 7.03 21.273 18.322 20.732 1.813-.096 3.594-.637 5.344-1.02.382-.095.604-.095.858.223 1.336 1.784 2.672 3.567 4.04 5.382-2.004 1.943-4.199 3.567-6.584 4.968-6.49 3.822-13.55 5.477-21.026 5.541-6.648.064-13.296 0-19.944 0-4.23 0-7.475-2.484-8.302-6.337C0 67.543 0 66.588 0 65.665c0-6.147.032-12.324.032-18.47C.064 36.303.064 25.38.064 14.49c0-2.038.095-4.076 0-6.115C-.096 3.981 3.404-.032 8.398 0c6.489.032 12.978.032 19.467.032 6.425 0 12.628 1.05 18.449 3.821 11.292 5.35 18.195 14.203 20.421 26.527 1.527 8.407.382 16.528-3.435 24.203-.318.7-.7 1.369-1.145 2.165z"/>
    <path fill="#fff" d="M52.58 54.965c-7.475 4.14-16.159 1.4-20.198-5.096-4.104-6.591-2.513-15.221 3.626-19.903 6.075-4.649 14.823-3.949 19.976 1.529 5.471 5.827 5.694 15.03-.35 21.177 1.145 1.529 2.322 3.057 3.467 4.617 2.736 3.63 5.503 7.293 8.239 10.923.445.605.731 1.242.509 1.974-.223.67-.7 1.147-1.4 1.274-.795.16-1.463-.127-1.94-.796-1.4-1.847-2.8-3.725-4.2-5.573-2.385-3.184-4.802-6.337-7.188-9.521-.223-.191-.35-.35-.54-.605zm3.754-13.025c0-6.241-4.994-11.273-11.229-11.305-6.203-.032-11.26 5.064-11.26 11.273 0 6.242 5.057 11.273 11.292 11.242 6.17.031 11.197-5 11.197-11.21zM197.248 65.633c-1.558 1.72-3.562 2.229-5.757 2.26-3.721.033-6.553-2.451-6.681-6.21-.159-4.012-.063-8.024-.031-12.005 0-1.273.954-2.133 2.226-2.101 1.272 0 2.227.891 2.227 2.197.032 2.484 0 5 0 7.483v2.293c-.063 3.981 2.671 4.65 5.375 4.076 1.686-.382 2.705-1.91 2.737-4.012.032-3.248 0-6.464 0-9.713 0-1.305.794-2.229 1.908-2.324 1.463-.16 2.514.796 2.544 2.26.031 1.816 0 3.599 0 5.414 0 3.44.031 6.91 0 10.35 0 .955-.062 1.91-.221 2.834-.701 3.535-3.151 5.764-6.936 6.369-2.131.35-4.294.223-6.394-.318-.539-.16-1.112-.383-1.59-.701-1.081-.7-1.272-1.751-.668-2.93.509-.987 1.496-1.337 2.64-.86 1.718.733 3.499 1.083 5.344.701 2.481-.51 3.723-2.388 3.277-5.063zM88.652 67.894c-3.117-.032-5.98-.797-8.334-2.93-.795-.7-1.24-1.56-.922-2.611.445-1.529 2.194-2.038 3.435-.988 2.131 1.752 4.517 2.548 7.22 2.134.828-.127 1.655-.382 2.386-.796 2.227-1.242 2.29-3.758.064-4.968-1.304-.7-2.831-.955-4.263-1.401-1.495-.446-3.053-.669-4.485-1.274-2.672-1.114-4.008-3.28-4.071-6.178-.064-2.77 1.081-4.936 3.435-6.4 3.88-2.389 10.274-1.911 13.742 1.082.445.382.827.987 1.018 1.56.286.86-.16 1.784-.923 2.261-.763.478-1.431.415-2.29-.127-2.386-1.529-4.93-2.42-7.825-1.72-2.1.51-3.15 2.039-2.64 3.79.222.828.731 1.465 1.526 1.72 1.75.541 3.563.955 5.313 1.496 1.463.446 2.958.86 4.326 1.529 4.007 1.974 4.071 8.152 1.24 10.923-2.195 2.197-4.93 2.93-7.952 2.898zM166.679 59.073c.255 2.547 2.481 4.299 4.485 4.617 1.877.287 3.626.096 5.249-1.019.254-.19.54-.318.859-.414.954-.318 1.876 0 2.353.796.446.733.319 1.688-.381 2.389-.986.987-2.227 1.497-3.499 1.942-4.231 1.401-9.161-.031-11.674-3.407-3.626-4.809-2.354-14.744 5.757-16.655 4.294-.987 8.875 1.528 10.624 5.955.414 1.019.573 2.134.7 3.248.159 1.592-.731 2.516-2.322 2.516h-11.292c-.286.032-.573.032-.859.032zm9.638-3.758c.096-1.974-1.877-3.853-4.199-4.012-2.958-.223-5.153 1.4-5.407 4.012h9.606zM102.521 55.06v-4.936c0-1.624.827-2.58 2.258-2.58 1.368 0 2.227.956 2.227 2.548v9.076c0 .287 0 .574.032.86.159 1.401.508 2.739 1.94 3.344 1.59.668 3.244.7 4.708-.319 1.24-.86 1.431-2.229 1.431-3.63.032-3.184 0-6.369 0-9.553 0-1.497.986-2.42 2.417-2.325 1.05.064 2.004.828 2.036 1.879.032 3.79.223 7.61-.095 11.368-.414 4.522-3.308 6.943-7.889 7.07-1.113.032-2.226-.064-3.308-.318-3.404-.828-5.503-3.567-5.662-7.261-.127-1.72-.064-3.471-.095-5.223zM212.675 67.894c-2.896-.16-5.534-.892-7.443-3.312-.764-.987-.573-2.102.446-2.834.889-.67 1.813-.573 2.702.35 1.463 1.497 3.214 2.325 5.312 2.23.509-.033.987-.128 1.464-.288.858-.254 1.304-.891 1.336-1.783.064-.828-.287-1.465-1.049-1.783-.955-.414-1.972-.732-2.959-1.083-1.367-.477-2.798-.86-4.104-1.497-3.275-1.656-3.848-6.177-1.144-8.661 3.053-2.803 8.937-2.707 11.865.254.223.223.446.478.603.733.573.923.414 1.942-.38 2.547-.796.605-1.845.542-2.577-.223-1.463-1.496-3.212-1.942-5.216-1.592-.956.16-1.529.7-1.656 1.497-.159.924.095 1.688.987 2.134.828.414 1.717.668 2.577.955 1.144.382 2.321.7 3.467 1.146 2.195.86 3.498 2.42 3.594 4.84.127 2.485-1.113 4.172-3.18 5.319-1.401.828-2.991 1.146-4.645 1.05zM150.743 60.729c.954-2.198 1.813-4.204 2.704-6.21.827-1.88 1.622-3.758 2.449-5.605.446-1.019 1.241-1.465 2.29-1.337.891.127 1.655.796 1.718 1.72.032.445-.063.955-.254 1.369-2.322 5.158-4.644 10.318-6.998 15.476-.414.956-1.209 1.37-2.227 1.37-1.018 0-1.622-.573-2.004-1.401l-6.871-15.286c-.668-1.465-.286-2.611.955-3.153 1.24-.541 2.576.032 3.181 1.401 1.59 3.63 3.18 7.261 4.771 10.923.032.223.127.382.286.733zM129.017 50.092c1.304-1.878 3.086-2.706 5.185-2.898.605-.063 1.241 0 1.781.191 1.273.446 1.782 1.625 1.336 2.898-.381 1.083-1.463 1.688-2.64 1.147-3.117-1.401-5.63 1.178-5.694 4.299-.063 2.993-.031 5.987-.031 8.98 0 .287 0 .573-.032.86-.223 1.274-1.145 1.974-2.418 1.879-1.145-.064-1.972-.924-2.004-2.166-.031-2.515 0-5.031 0-7.547v-7.388c0-1.783.668-2.707 1.973-2.834 1.399-.064 2.194.7 2.544 2.58z"/>
    <path fill="#fff" d="M45.137 50.347c4.644 0 8.43-3.821 8.398-8.47 0-4.586-3.817-8.408-8.43-8.408-4.707 0-8.461 3.758-8.461 8.503.032 4.681 3.785 8.375 8.493 8.375z"/>
    <path fill="#fff" d="M45.137 50.347c-4.708 0-8.461-3.694-8.461-8.407 0-4.745 3.753-8.503 8.46-8.503 4.581 0 8.398 3.822 8.43 8.407 0 4.713-3.785 8.503-8.43 8.503z"/>
</svg>
