<svg width="55" height="44" viewBox="0 0 55 44" fill="none" stroke-width=0 xmlns="http://www.w3.org/2000/svg">
<path fill-rule="evenodd" clip-rule="evenodd" d="M17 4.57143C17 4.01914 17.4477 3.57143 18 3.57143H53.1429C53.6951 3.57143 54.1429 4.01914 54.1429 4.57143C54.1429 5.12371 53.6951 5.57143 53.1429 5.57143H18C17.4477 5.57143 17 5.12371 17 4.57143Z" fill="#2D3F50"/>
<path fill-rule="evenodd" clip-rule="evenodd" d="M17 21.7143C17 21.162 17.4477 20.7143 18 20.7143H53.1429C53.6951 20.7143 54.1429 21.162 54.1429 21.7143C54.1429 22.2666 53.6951 22.7143 53.1429 22.7143H18C17.4477 22.7143 17 22.2666 17 21.7143Z" fill="#2D3F50"/>
<path fill-rule="evenodd" clip-rule="evenodd" d="M17 38.8571C17 38.3049 17.4477 37.8571 18 37.8571H53.1429C53.6951 37.8571 54.1429 38.3049 54.1429 38.8571C54.1429 39.4094 53.6951 39.8571 53.1429 39.8571H18C17.4477 39.8571 17 39.4094 17 38.8571Z" fill="#2D3F50"/>
<path fill-rule="evenodd" clip-rule="evenodd" d="M3 0.5H6.71428C8.09499 0.5 9.21429 1.61929 9.21429 3V6.71428C9.21429 8.09499 8.095 9.21429 6.71429 9.21429H3C1.61929 9.21429 0.5 8.095 0.5 6.71429V3C0.5 1.61929 1.61929 0.5 3 0.5ZM3 2C2.44772 2 2 2.44772 2 3V6.71429C2 7.26657 2.44772 7.71429 3 7.71429H6.71429C7.26657 7.71429 7.71429 7.26657 7.71429 6.71428V3C7.71429 2.44772 7.26657 2 6.71428 2H3Z" fill="#2D3F50"/>
<path fill-rule="evenodd" clip-rule="evenodd" d="M3 17.6429H6.71428C8.09499 17.6429 9.21429 18.7621 9.21429 20.1429V23.8571C9.21429 25.2379 8.095 26.3571 6.71429 26.3571H3C1.61929 26.3571 0.5 25.2379 0.5 23.8571V20.1429C0.5 18.7621 1.61929 17.6429 3 17.6429ZM3 19.1429C2.44772 19.1429 2 19.5906 2 20.1429V23.8571C2 24.4094 2.44772 24.8571 3 24.8571H6.71429C7.26657 24.8571 7.71429 24.4094 7.71429 23.8571V20.1429C7.71429 19.5906 7.26657 19.1429 6.71428 19.1429H3Z" fill="#2D3F50"/>
<path fill-rule="evenodd" clip-rule="evenodd" d="M3 34.7857H6.71428C8.09499 34.7857 9.21429 35.905 9.21429 37.2857V41C9.21429 42.3807 8.095 43.5 6.71429 43.5H3C1.61929 43.5 0.5 42.3807 0.5 41V37.2857C0.5 35.905 1.61929 34.7857 3 34.7857ZM3 36.2857C2.44772 36.2857 2 36.7334 2 37.2857V41C2 41.5523 2.44772 42 3 42H6.71429C7.26657 42 7.71429 41.5523 7.71429 41V37.2857C7.71429 36.7334 7.26657 36.2857 6.71428 36.2857H3Z" fill="#2D3F50"/>
<path d="M3.42857 3.92857C3.42857 3.65243 3.65243 3.42857 3.92857 3.42857H5.78571C6.06186 3.42857 6.28571 3.65243 6.28571 3.92857V5.78571C6.28571 6.06186 6.06186 6.28571 5.78571 6.28571H3.92857C3.65243 6.28571 3.42857 6.06186 3.42857 5.78571V3.92857Z" fill="#2D3F50"/>
<path d="M3.42857 21.0714C3.42857 20.7953 3.65243 20.5714 3.92857 20.5714H5.78571C6.06186 20.5714 6.28571 20.7953 6.28571 21.0714V22.9286C6.28571 23.2047 6.06186 23.4286 5.78571 23.4286H3.92857C3.65243 23.4286 3.42857 23.2047 3.42857 22.9286V21.0714Z" fill="#2D3F50"/>
</svg>
