<svg xmlns="http://www.w3.org/2000/svg" width="50" height="53" fill="none" stroke-width=0  viewBox="0 0 50 53">
    <path fill="#2D3F50" d="M.617 23.924L1 23l-.924.383C.027 23.265 0 23.136 0 23v-2.75h1.5v2.25h1.9V24H1c-.136 0-.265-.027-.383-.076zM46.6 24v-1.5h1.9v-2.25H50V23c0 .136-.027.265-.076.383L49 23l.383.924c-.118.049-.247.076-.383.076h-2.4zM50 3.75h-1.5V1.5h-1.9V0H49c.136 0 .265.027.383.076L49 1l.924-.383C49.973.735 50 .864 50 1v2.75zM3.4 0H1C.864 0 .735.027.617.076L1 1 .076.617C.027.735 0 .864 0 1v2.75h1.5V1.5h1.9V0zM0 14.75h1.5v-5.5H0v5.5zM8.2 0v1.5H13V0H8.2zM17.8 0v1.5h4.8V0h-4.8zM27.4 0v1.5h4.8V0h-4.8zM37 0v1.5h4.8V0H37zM50 9.25h-1.5v5.5H50v-5.5zM41.8 24v-1.5H37V24h4.8zM32.2 24v-1.5h-4.8V24h4.8zM22.6 24v-1.5h-4.8V24h4.8zM13 24v-1.5H8.2V24H13zM26.857 11.143H30v1.714h-3.143V16h-1.714v-3.143H22v-1.714h3.143V8h1.714v3.143zM26.857 40.143H30v1.714h-3.143V45h-1.714v-3.143H22v-1.714h3.143V37h1.714v3.143zM1 52l-.383.924C.735 52.973.864 53 1 53h2.4v-1.5H1.5v-2.25H0V52c0 .136.027.265.076.383L1 52zM46.6 51.5V53H49c.136 0 .265-.027.383-.076L49 52l.924.383c.049-.118.076-.247.076-.383v-2.75h-1.5v2.25h-1.9zM48.5 32.75H50V30c0-.136-.027-.265-.076-.383L49 30l.383-.924C49.265 29.027 49.136 29 49 29h-2.4v1.5h1.9v2.25zM1 29h2.4v1.5H1.5v2.25H0V30c0-.136.027-.265.076-.383L1 30l-.383-.924C.735 29.027.864 29 1 29zM1.5 43.75H0v-5.5h1.5v5.5zM8.2 30.5V29H13v1.5H8.2zM17.8 30.5V29h4.8v1.5h-4.8zM27.4 30.5V29h4.8v1.5h-4.8zM37 30.5V29h4.8v1.5H37zM48.5 38.25H50v5.5h-1.5v-5.5zM41.8 51.5V53H37v-1.5h4.8zM32.2 51.5V53h-4.8v-1.5h4.8zM22.6 51.5V53h-4.8v-1.5h4.8zM13 51.5V53H8.2v-1.5H13z"/>
</svg>
