<svg width="77" height="18" viewBox="0 0 77 18" fill="none" stroke-width=0 xmlns="http://www.w3.org/2000/svg">
<path d="M8.5572 0.882872C8.95758 0.0983222 10.0786 0.0983235 10.479 0.882873L12.4217 4.68957C12.5784 4.99672 12.8726 5.21043 13.2131 5.26459L17.4338 5.93586C18.3037 6.07421 18.6501 7.14036 18.0277 7.76359L15.0076 10.7875C14.7639 11.0315 14.6516 11.3773 14.7053 11.7179L15.3712 15.9395C15.5084 16.8095 14.6015 17.4685 13.8164 17.0691L10.0072 15.1313C9.69988 14.9749 9.3363 14.9749 9.02895 15.1313L5.21976 17.0691C4.4347 17.4685 3.52777 16.8095 3.665 15.9395L4.33086 11.7179C4.38459 11.3773 4.27223 11.0315 4.02855 10.7875L1.00849 7.76359C0.386063 7.14036 0.73248 6.07421 1.60236 5.93586L5.82306 5.26459C6.16362 5.21043 6.45776 4.99672 6.61451 4.68957L8.5572 0.882872Z" fill="#2D3F50"/>
<path fill-rule="evenodd" clip-rule="evenodd" d="M9.51809 2.29988L7.95058 5.37141C7.57588 6.10565 6.87275 6.6165 6.05866 6.74598L2.65308 7.2876L5.08989 9.72755C5.6724 10.3108 5.94097 11.1374 5.81254 11.9516L5.27528 15.3579L8.34882 13.7943C9.08353 13.4206 9.95265 13.4206 10.6874 13.7943L13.7609 15.3579L13.2236 11.9516C13.0952 11.1374 13.3638 10.3108 13.9463 9.72755L16.3831 7.28761L12.9775 6.74598C12.1634 6.6165 11.4603 6.10565 11.0856 5.37141L9.51809 2.29988ZM10.479 0.882873C10.0786 0.0983235 8.95758 0.0983222 8.5572 0.882872L6.61451 4.68957C6.45776 4.99672 6.16362 5.21043 5.82306 5.26459L1.60236 5.93586C0.73248 6.07421 0.386063 7.14036 1.00849 7.76359L4.02855 10.7875C4.27223 11.0315 4.38459 11.3773 4.33086 11.7179L3.665 15.9395C3.52777 16.8095 4.4347 17.4685 5.21976 17.0691L9.02895 15.1313C9.3363 14.9749 9.69988 14.9749 10.0072 15.1313L13.8164 17.0691C14.6015 17.4685 15.5084 16.8095 15.3712 15.9395L14.7053 11.7179C14.6516 11.3773 14.7639 11.0315 15.0076 10.7875L18.0277 7.76359C18.6501 7.14036 18.3037 6.07421 17.4338 5.93586L13.2131 5.26459C12.8726 5.21043 12.5784 4.99672 12.4217 4.68957L10.479 0.882873Z" fill="#2D3F50"/>
<path fill-rule="evenodd" clip-rule="evenodd" d="M38.5 2.29988L36.9325 5.37141C36.5578 6.10565 35.8547 6.6165 35.0406 6.74598L31.635 7.2876L34.0718 9.72755C34.6543 10.3108 34.9229 11.1374 34.7945 11.9516L34.2572 15.3579L37.3308 13.7943C38.0655 13.4206 38.9346 13.4206 39.6693 13.7943L42.7428 15.3579L42.2056 11.9516C42.0771 11.1374 42.3457 10.3108 42.9282 9.72755L45.365 7.28761L41.9594 6.74598C41.1454 6.6165 40.4422 6.10565 40.0675 5.37141L38.5 2.29988ZM39.4609 0.882873C39.0605 0.0983235 37.9395 0.0983222 37.5391 0.882872L35.5964 4.68957C35.4397 4.99672 35.1456 5.21043 34.805 5.26459L30.5843 5.93586C29.7144 6.07421 29.368 7.14036 29.9904 7.76359L33.0105 10.7875C33.2542 11.0315 33.3665 11.3773 33.3128 11.7179L32.6469 15.9395C32.5097 16.8095 33.4166 17.4685 34.2017 17.0691L38.0109 15.1313C38.3182 14.9749 38.6818 14.9749 38.9892 15.1313L42.7984 17.0691C43.5834 17.4685 44.4903 16.8095 44.3531 15.9395L43.6873 11.7179C43.6335 11.3773 43.7459 11.0315 43.9896 10.7875L47.0096 7.76359C47.632 7.14036 47.2856 6.07421 46.4158 5.93586L42.195 5.26459C41.8545 5.21043 41.5603 4.99672 41.4036 4.68957L39.4609 0.882873Z" fill="#2D3F50"/>
<path fill-rule="evenodd" clip-rule="evenodd" d="M67.4817 2.29988L65.9142 5.37141C65.5395 6.10565 64.8364 6.6165 64.0223 6.74598L60.6167 7.2876L63.0535 9.72755C63.636 10.3108 63.9046 11.1374 63.7762 11.9516L63.2389 15.3579L66.3124 13.7943C67.0472 13.4206 67.9163 13.4206 68.651 13.7943L71.7245 15.3579L71.1873 11.9516C71.0588 11.1374 71.3274 10.3108 71.9099 9.72755L74.3467 7.28761L70.9411 6.74598C70.1271 6.6165 69.4239 6.10565 69.0492 5.37141L67.4817 2.29988ZM68.4426 0.882873C68.0422 0.0983235 66.9212 0.0983222 66.5208 0.882872L64.5781 4.68957C64.4214 4.99672 64.1272 5.21043 63.7867 5.26459L59.566 5.93586C58.6961 6.07421 58.3497 7.14036 58.9721 7.76359L61.9922 10.7875C62.2359 11.0315 62.3482 11.3773 62.2945 11.7179L61.6286 15.9395C61.4914 16.8095 62.3983 17.4685 63.1834 17.0691L66.9926 15.1313C67.2999 14.9749 67.6635 14.9749 67.9709 15.1313L71.78 17.0691C72.5651 17.4685 73.472 16.8095 73.3348 15.9395L72.6689 11.7179C72.6152 11.3773 72.7276 11.0315 72.9713 10.7875L75.9913 7.76359C76.6137 7.14036 76.2673 6.07421 75.3974 5.93586L71.1767 5.26459C70.8362 5.21043 70.542 4.99672 70.3853 4.68957L68.4426 0.882873Z" fill="#2D3F50"/>
</svg>
