<svg width="50" height="44" viewBox="0 0 50 44" fill="none" stroke-width=0 xmlns="http://www.w3.org/2000/svg">
<path d="M6.28585 4.85716C6.28585 5.64614 5.64626 6.28573 4.85728 6.28573C4.0683 6.28573 3.42871 5.64614 3.42871 4.85716C3.42871 4.06818 4.0683 3.42859 4.85728 3.42859C5.64626 3.42859 6.28585 4.06818 6.28585 4.85716Z" fill="#2D3F50"/>
<path fill-rule="evenodd" clip-rule="evenodd" d="M9.21429 4.85714C9.21429 7.26353 7.26353 9.21429 4.85714 9.21429C2.45076 9.21429 0.5 7.26353 0.5 4.85714C0.5 2.45076 2.45076 0.5 4.85714 0.5C7.26353 0.5 9.21429 2.45076 9.21429 4.85714ZM4.85714 7.71429C6.4351 7.71429 7.71429 6.4351 7.71429 4.85714C7.71429 3.27919 6.4351 2 4.85714 2C3.27919 2 2 3.27919 2 4.85714C2 6.4351 3.27919 7.71429 4.85714 7.71429Z" fill="#2D3F50"/>
<path fill-rule="evenodd" clip-rule="evenodd" d="M9.21429 22C9.21429 24.4064 7.26353 26.3571 4.85714 26.3571C2.45076 26.3571 0.5 24.4064 0.5 22C0.5 19.5936 2.45076 17.6429 4.85714 17.6429C7.26353 17.6429 9.21429 19.5936 9.21429 22ZM4.85714 24.8571C6.4351 24.8571 7.71429 23.578 7.71429 22C7.71429 20.422 6.4351 19.1429 4.85714 19.1429C3.27919 19.1429 2 20.422 2 22C2 23.578 3.27919 24.8571 4.85714 24.8571Z" fill="#2D3F50"/>
<path fill-rule="evenodd" clip-rule="evenodd" d="M4.85714 43.5C7.26353 43.5 9.21429 41.5492 9.21429 39.1428C9.21429 36.7365 7.26353 34.7857 4.85714 34.7857C2.45076 34.7857 0.5 36.7365 0.5 39.1428C0.5 41.5492 2.45076 43.5 4.85714 43.5ZM7.71429 39.1428C7.71429 40.7208 6.4351 42 4.85714 42C3.27919 42 2 40.7208 2 39.1428C2 37.5649 3.27919 36.2857 4.85714 36.2857C6.4351 36.2857 7.71429 37.5649 7.71429 39.1428Z" fill="#2D3F50"/>
<path d="M13 3.57144C12.4477 3.57144 12 4.01916 12 4.57144C12 5.12373 12.4477 5.57144 13 5.57144H48.1429C48.6951 5.57144 49.1429 5.12373 49.1429 4.57144C49.1429 4.01916 48.6951 3.57144 48.1429 3.57144H13Z" fill="#2D3F50"/>
<path d="M12 21.7143C12 21.162 12.4477 20.7143 13 20.7143H48.1429C48.6951 20.7143 49.1429 21.162 49.1429 21.7143C49.1429 22.2666 48.6951 22.7143 48.1429 22.7143H13C12.4477 22.7143 12 22.2666 12 21.7143Z" fill="#2D3F50"/>
<path d="M13 37.8571C12.4477 37.8571 12 38.3049 12 38.8571C12 39.4094 12.4477 39.8571 13 39.8571H48.1429C48.6951 39.8571 49.1429 39.4094 49.1429 38.8571C49.1429 38.3049 48.6951 37.8571 48.1429 37.8571H13Z" fill="#2D3F50"/>
</svg>
