<svg width="81" height="25" viewBox="0 0 81 25" fill="none" stroke-width=0 xmlns="http://www.w3.org/2000/svg">
<path fill-rule="evenodd" clip-rule="evenodd" d="M77 1.5H4C2.61929 1.5 1.5 2.61929 1.5 4V20.1277C1.5 21.5084 2.61929 22.6277 4 22.6277H77C78.3807 22.6277 79.5 21.5084 79.5 20.1277V4C79.5 2.61929 78.3807 1.5 77 1.5ZM4 0C1.79086 0 0 1.79086 0 4V20.1277C0 22.3368 1.79086 24.1277 4 24.1277H77C79.2091 24.1277 81 22.3368 81 20.1277V4C81 1.79086 79.2091 0 77 0H4ZM30.5668 12.025C30.5668 14.412 32.0078 15.732 33.8338 15.732C34.7468 15.732 35.4948 15.358 36.0778 14.687L35.3738 13.906C34.9668 14.357 34.4938 14.621 33.8558 14.621C32.6568 14.621 31.8758 13.631 31.8758 11.992C31.8758 10.375 32.7228 9.385 33.8998 9.385C34.4498 9.385 34.8568 9.616 35.2308 9.979L35.9348 9.187C35.4838 8.703 34.7688 8.274 33.8888 8.274C32.0408 8.274 30.5668 9.671 30.5668 12.025ZM10.982 11.772L10.729 12.652H12.566L12.313 11.772C12.093 11.013 11.873 10.188 11.664 9.396H11.62C11.422 10.199 11.213 11.013 10.982 11.772ZM14.766 15.6H13.413L12.852 13.653H10.443L9.882 15.6H8.573L10.927 8.406H12.423L14.766 15.6ZM22.5066 15.6H20.0206V8.406H22.3196C23.7936 8.406 24.8826 8.857 24.8826 10.177C24.8826 10.859 24.4976 11.519 23.6506 11.739V11.783C24.6846 11.959 25.2676 12.52 25.2676 13.488C25.2676 14.929 24.0906 15.6 22.5066 15.6ZM21.2966 9.396V11.387H22.1986C23.2106 11.387 23.6286 11.002 23.6286 10.331C23.6286 9.671 23.1666 9.396 22.2316 9.396H21.2966ZM21.2966 12.3V14.61H22.3746C23.4306 14.61 24.0136 14.214 24.0136 13.4C24.0136 12.652 23.4416 12.3 22.3746 12.3H21.2966ZM40.5 6.03191V18.0957H42V6.03191H40.5Z" fill="#2D3F50"/>
</svg>
