<svg xmlns="http://www.w3.org/2000/svg" width="118" height="40" fill="none" viewBox="0 0 118 40">
    <path fill="#fff" d="M33.187 30.266c-.493-.663-.934-1.257-1.393-1.835-.187-.22-.102-.356.034-.543 1.257-1.767 1.851-3.737 1.766-5.91-.187-4.943-4.042-8.85-9.103-9.121-4.688-.255-8.968 3.057-9.8 7.931-1.019 5.945 3.754 11.346 9.783 11.057.968-.05 1.92-.34 2.853-.543.204-.051.323-.051.459.119.713.95 1.426 1.902 2.157 2.87-1.07 1.036-2.242 1.902-3.516 2.65-3.465 2.037-7.235 2.92-11.226 2.954-3.55.034-7.1 0-10.65 0-2.258 0-3.99-1.324-4.432-3.38C0 36.024 0 35.515 0 35.022c0-3.278.017-6.573.017-9.85.017-5.81.017-11.635.017-17.443 0-1.087.05-2.174 0-3.261C-.051 2.123 1.817-.017 4.484 0c3.465.017 6.93.017 10.394.017 3.43 0 6.743.56 9.85 2.038 6.03 2.853 9.715 7.575 10.904 14.148.816 4.484.204 8.814-1.834 12.908-.17.373-.373.73-.611 1.155z"/>
    <path fill="#fff" d="M28.075 29.314c-3.992 2.208-8.628.748-10.785-2.717-2.191-3.516-1.342-8.118 1.936-10.615 3.244-2.48 7.914-2.106 10.666.815 2.921 3.108 3.04 8.017-.187 11.295.611.815 1.24 1.63 1.851 2.462 1.46 1.936 2.939 3.89 4.4 5.826.237.322.39.662.27 1.053-.118.356-.373.611-.746.68-.425.084-.782-.069-1.036-.425-.748-.986-1.495-1.988-2.242-2.973-1.274-1.698-2.565-3.38-3.839-5.078-.119-.102-.186-.187-.288-.323zm2.004-6.946c0-3.329-2.667-6.012-5.996-6.03-3.312-.016-6.012 2.701-6.012 6.013 0 3.329 2.7 6.012 6.03 5.995 3.294.017 5.978-2.666 5.978-5.978zM105.318 35.004c-.832.917-1.902 1.189-3.074 1.206-1.987.017-3.499-1.308-3.567-3.312-.085-2.14-.034-4.28-.017-6.403 0-.68.51-1.138 1.189-1.12.679 0 1.189.475 1.189 1.171.017 1.325 0 2.667 0 3.991v1.223c-.034 2.123 1.426 2.48 2.87 2.174.9-.204 1.444-1.019 1.461-2.14.017-1.732 0-3.448 0-5.18 0-.696.424-1.189 1.019-1.24.781-.085 1.341.425 1.358 1.206.017.968 0 1.92 0 2.887 0 1.835.017 3.686 0 5.52 0 .51-.033 1.02-.118 1.512-.374 1.885-1.682 3.074-3.703 3.396-1.138.187-2.293.12-3.414-.17-.288-.084-.594-.203-.849-.373-.577-.374-.68-.934-.357-1.563.272-.526.799-.713 1.41-.458.917.39 1.868.577 2.853.374 1.325-.272 1.988-1.274 1.75-2.7zM47.334 36.21c-1.664-.017-3.193-.425-4.45-1.563-.424-.373-.662-.832-.492-1.392.238-.816 1.172-1.087 1.834-.527 1.138.934 2.412 1.359 3.856 1.138.441-.068.883-.204 1.273-.424 1.19-.663 1.223-2.005.035-2.65-.697-.374-1.512-.51-2.276-.747-.799-.238-1.63-.357-2.395-.68-1.427-.594-2.14-1.749-2.174-3.294-.034-1.478.577-2.633 1.834-3.414 2.072-1.274 5.486-1.02 7.337.577.238.204.442.527.544.832.153.459-.085.951-.493 1.206-.407.255-.764.221-1.223-.068-1.273-.815-2.632-1.29-4.178-.917-1.12.272-1.681 1.087-1.41 2.021.12.442.391.782.816.917.934.29 1.902.51 2.836.799.782.238 1.58.458 2.31.815 2.14 1.053 2.174 4.348.662 5.825-1.172 1.172-2.632 1.563-4.246 1.546zM88.996 31.505c.136 1.36 1.325 2.293 2.395 2.463 1.002.153 1.936.051 2.802-.543.136-.102.289-.17.459-.221.51-.17 1.002 0 1.257.424.237.391.17.9-.204 1.274-.527.527-1.19.798-1.868 1.036-2.26.747-4.892-.017-6.234-1.817-1.936-2.565-1.256-7.864 3.075-8.883 2.292-.526 4.738.816 5.672 3.176.221.544.306 1.138.374 1.733.085.849-.39 1.341-1.24 1.341h-6.03c-.152.017-.305.017-.458.017zm5.146-2.004c.051-1.053-1.002-2.055-2.242-2.14-1.58-.119-2.751.748-2.887 2.14h5.13zM54.74 29.365v-2.632c0-.866.441-1.376 1.205-1.376.73 0 1.19.51 1.19 1.359v4.84c0 .153 0 .306.016.459.085.747.272 1.46 1.036 1.783.85.357 1.733.374 2.514-.17.662-.458.764-1.188.764-1.936.017-1.698 0-3.397 0-5.095 0-.798.527-1.29 1.29-1.24.561.034 1.07.442 1.088 1.002.017 2.021.119 4.06-.051 6.064-.22 2.411-1.766 3.702-4.212 3.77-.595.017-1.189-.034-1.767-.17-1.817-.441-2.938-1.902-3.023-3.872-.068-.917-.034-1.852-.05-2.786zM113.555 36.21c-1.546-.085-2.955-.476-3.974-1.766-.408-.527-.306-1.121.238-1.512.475-.357.968-.306 1.443.187.781.798 1.716 1.24 2.836 1.189.272-.017.527-.068.782-.153.458-.136.696-.476.713-.951.034-.442-.153-.781-.56-.951-.51-.221-1.053-.39-1.58-.578-.73-.255-1.494-.458-2.191-.798-1.749-.883-2.055-3.295-.611-4.62 1.63-1.494 4.772-1.443 6.335.136.119.12.238.255.322.39.306.493.221 1.037-.203 1.36-.425.322-.985.288-1.376-.12-.781-.798-1.715-1.035-2.785-.849-.51.085-.816.374-.884.799-.085.492.051.9.527 1.138.442.22.917.356 1.376.51.611.203 1.239.373 1.851.61 1.172.46 1.868 1.291 1.919 2.582.068 1.325-.594 2.225-1.698 2.837-.748.441-1.597.61-2.48.56zM80.487 32.389c.51-1.172.968-2.242 1.444-3.312.441-1.002.866-2.004 1.308-2.99.237-.543.662-.78 1.222-.713.476.068.884.425.918.917.016.238-.034.51-.136.73-1.24 2.752-2.48 5.504-3.737 8.255-.22.51-.645.73-1.189.73-.543 0-.866-.306-1.07-.747l-3.668-8.152c-.357-.782-.153-1.393.51-1.682.662-.289 1.375.017 1.698.747.849 1.937 1.698 3.873 2.547 5.826.017.119.068.204.153.39zM68.887 26.716c.696-1.002 1.647-1.444 2.769-1.546.322-.034.662 0 .95.102.68.238.952.867.714 1.546-.204.577-.781.9-1.41.611-1.664-.747-3.006.629-3.04 2.293-.034 1.597-.017 3.193-.017 4.79 0 .152 0 .305-.017.458-.119.68-.611 1.053-1.29 1.002-.612-.034-1.054-.492-1.07-1.155-.018-1.341 0-2.683 0-4.025v-3.94c0-.951.356-1.444 1.052-1.512.748-.034 1.172.374 1.36 1.376z"/>
    <path fill="#fff" d="M24.1 26.852c2.48 0 4.501-2.038 4.484-4.518 0-2.446-2.038-4.484-4.5-4.484-2.514 0-4.518 2.004-4.518 4.535.017 2.497 2.02 4.467 4.534 4.467z"/>
    <path fill="#fff" d="M24.1 26.852c-2.513 0-4.517-1.97-4.517-4.484 0-2.53 2.004-4.535 4.517-4.535 2.446 0 4.484 2.038 4.501 4.484 0 2.514-2.021 4.535-4.5 4.535z"/>
</svg>
