<svg xmlns="http://www.w3.org/2000/svg" width="316" height="88" fill="none" viewBox="0 0 316 88">
    <path fill="url(#paint0_linear)" d="M33 0H9.52C4.26 0 0 4.2 0 9.37v68.88c0 5.18 4.26 9.37 9.52 9.37H33c27.21 0 46-19.15 46-44.06C79 18.9 60.21 0 33 0z"/>
    <path fill="#2C3E50" d="M120.49 76.52h-12.96V51.4c0-.6-.22-1.11-.65-1.53-.44-.42-.96-.63-1.56-.63-.66 0-1.2.21-1.63.63-.42.42-.63.93-.63 1.53v27.14c0 .6.2 1.11.61 1.53.41.42.93.63 1.56.63h15.26c.63 0 1.15-.19 1.56-.58.41-.39.61-.88.61-1.48 0-.63-.2-1.14-.61-1.53-.4-.4-.92-.59-1.56-.59zM170.7 58.18c-1.66-1.05-3.51-1.57-5.55-1.57-1.57 0-3.04.39-4.42 1.17-1.38.78-2.44 1.71-3.16 2.79V49.6c0-.6-.2-1.11-.61-1.53-.41-.42-.93-.63-1.56-.63s-1.14.2-1.54.61c-.39.4-.59.92-.59 1.55v29.25c0 .63.2 1.15.61 1.55.41.4.91.61 1.51.61.63 0 1.15-.21 1.56-.63.41-.42.61-.93.61-1.53v-1.3c.84 1.02 1.94 1.87 3.3 2.56 1.35.69 2.81 1.03 4.38 1.03 1.99 0 3.81-.52 5.46-1.57 1.66-1.05 2.96-2.52 3.91-4.4.95-1.89 1.42-4 1.42-6.34s-.47-4.43-1.42-6.29c-.96-1.86-2.26-3.31-3.91-4.36zm.29 14.9c-.62 1.27-1.48 2.28-2.6 3.01s-2.36 1.1-3.75 1.1c-1.41 0-2.68-.37-3.79-1.1-1.11-.73-1.98-1.73-2.6-2.99-.62-1.26-.93-2.68-.93-4.27 0-1.59.31-3 .93-4.25.62-1.25 1.48-2.22 2.6-2.94 1.11-.72 2.38-1.08 3.79-1.08 1.38 0 2.63.36 3.75 1.08 1.11.72 1.98 1.71 2.6 2.97.62 1.26.93 2.67.93 4.22 0 1.55-.31 2.98-.93 4.25zM192.91 68.43c-1.05-.48-2.38-.93-3.97-1.35-1.84-.48-3.2-.97-4.09-1.48-.89-.51-1.35-1.29-1.38-2.34 0-1.11.4-1.89 1.2-2.36.8-.46 1.77-.7 2.91-.7 1.11 0 2.13.19 3.05.58.92.39 1.69.94 2.33 1.66.33.36.77.54 1.31.54.45 0 .83-.13 1.13-.4.48-.45.72-.91.72-1.39 0-.45-.18-.88-.54-1.3-.9-1.11-2.07-1.93-3.5-2.47-1.43-.54-2.87-.81-4.31-.81-1.5 0-2.9.28-4.18.85-1.28.57-2.3 1.36-3.07 2.38-.77 1.02-1.15 2.2-1.15 3.55 0 1.53.38 2.76 1.15 3.71.77.94 1.71 1.66 2.82 2.16 1.11.49 2.51.97 4.2 1.42 1.72.45 3.02.94 3.91 1.48.89.54 1.33 1.32 1.33 2.34 0 1.11-.44 1.91-1.31 2.4-.87.49-1.88.76-3.02.79-1.44 0-2.69-.25-3.72-.76-1.03-.51-2.01-1.27-2.91-2.29-.45-.45-.95-.67-1.49-.67-.39 0-.74.1-1.04.31-.63.42-.95.93-.95 1.53 0 .39.14.79.41 1.21 1.11 1.44 2.48 2.49 4.09 3.15 1.61.66 3.36.99 5.26.99 1.47 0 2.87-.28 4.18-.83 1.31-.55 2.37-1.35 3.18-2.38.81-1.03 1.22-2.25 1.22-3.66 0-1.53-.36-2.76-1.08-3.71-.75-.96-1.64-1.67-2.69-2.15zM145.64 56.83c-.63 0-1.14.21-1.53.63-.39.42-.59.94-.59 1.57v1.08c-.81-1.02-1.9-1.86-3.27-2.52-1.37-.66-2.85-.99-4.45-.99-1.99 0-3.81.52-5.46 1.57-1.66 1.05-2.96 2.51-3.91 4.38-.95 1.87-1.42 3.98-1.42 6.31 0 2.34.47 4.44 1.42 6.31.95 1.87 2.26 3.33 3.93 4.38 1.67 1.05 3.53 1.57 5.58 1.57 1.57 0 3.02-.37 4.38-1.1 1.35-.73 2.42-1.63 3.21-2.67v1.17c0 .63.2 1.15.59 1.55.39.4.9.61 1.53.61s1.15-.21 1.56-.63c.41-.42.61-.93.61-1.53v-19.5c0-.66-.2-1.19-.61-1.6-.42-.38-.94-.59-1.57-.59zm-2.87 16.32c-.62 1.26-1.47 2.25-2.57 2.97-1.1.72-2.36 1.08-3.77 1.08-1.41 0-2.67-.36-3.77-1.08-1.1-.72-1.96-1.71-2.57-2.97-.62-1.26-.93-2.68-.93-4.27 0-1.59.31-3.01.93-4.27.62-1.26 1.47-2.25 2.57-2.97 1.1-.72 2.36-1.08 3.77-1.08 1.41 0 2.67.37 3.77 1.1 1.1.73 1.96 1.73 2.57 2.99.62 1.26.93 2.67.93 4.22 0 1.59-.31 3.02-.93 4.28zM106.38 42.68h8.72c10.11 0 17.09-6.88 17.09-15.82 0-8.85-6.98-15.64-17.09-15.64h-8.72c-1.95 0-3.54 1.51-3.54 3.37v24.73c0 1.86 1.58 3.36 3.54 3.36zm.96-26.95h7.76c7.41 0 12.59 4.58 12.59 11.14 0 6.66-5.18 11.32-12.59 11.32h-7.76V15.73zM156.73 37.88c0-.48-.17-.9-.52-1.26s-.78-.54-1.29-.54c-.42 0-.86.13-1.31.4-.69.66-1.49 1.2-2.39 1.62-.9.42-2.08.63-3.52.63-2.11 0-3.89-.66-5.35-1.98-1.46-1.32-2.29-3.07-2.51-5.26h15.89c.57 0 1.07-.19 1.49-.56.42-.37.65-.83.68-1.37-.03-2.16-.56-4.1-1.58-5.84-1.02-1.74-2.38-3.1-4.06-4.09-1.69-.99-3.49-1.48-5.42-1.48-1.96 0-3.78.51-5.49 1.53-1.7 1.02-3.07 2.48-4.11 4.38-1.04 1.9-1.56 4.11-1.56 6.63 0 2.31.5 4.37 1.51 6.2s2.44 3.25 4.29 4.27c1.85 1.02 4 1.53 6.43 1.53 1.5 0 2.98-.3 4.42-.9 1.44-.6 2.6-1.33 3.48-2.2.62-.51.92-1.08.92-1.71zm-14.26-14.36c1.23-.94 2.69-1.42 4.38-1.42 1.63 0 3.08.51 4.36 1.53 1.28 1.02 1.99 2.32 2.14 3.91v.36h-13.32c.39-1.97 1.2-3.44 2.44-4.38zM180.75 38.73c0-.6-.17-1.09-.52-1.46-.35-.37-.82-.56-1.42-.56-.33 0-.61.06-.84.18-.23.12-.49.3-.79.54-.36.27-.65.46-.86.58-.96.48-2.23.72-3.79.72-1.5 0-2.84-.36-4.02-1.08-1.17-.72-2.08-1.71-2.73-2.97-.65-1.26-.97-2.68-.97-4.27 0-1.56.33-2.97.99-4.25.66-1.27 1.6-2.27 2.8-2.99 1.2-.72 2.59-1.08 4.15-1.08.54 0 1.14.06 1.81.18.67.12 1.17.27 1.54.45.39.24.68.45.86.63.39.27.7.46.93.58.23.12.53.18.93.18.51 0 .93-.2 1.26-.61.33-.4.5-.86.5-1.37 0-1.17-.79-2.13-2.37-2.88s-3.56-1.12-5.94-1.12c-2.29 0-4.32.53-6.09 1.6-1.78 1.06-3.16 2.53-4.15 4.4-.99 1.87-1.49 3.96-1.49 6.27 0 2.31.47 4.4 1.42 6.27.95 1.87 2.29 3.34 4.04 4.4 1.75 1.06 3.76 1.6 6.05 1.6 1.53 0 2.97-.19 4.31-.58 1.34-.39 2.41-.89 3.21-1.51.78-.6 1.18-1.22 1.18-1.85zM291.58 19.63c-1.69-.99-3.49-1.48-5.42-1.48-1.96 0-3.78.51-5.49 1.53-1.7 1.02-3.07 2.48-4.11 4.38-1.04 1.9-1.56 4.11-1.56 6.63 0 2.31.5 4.37 1.51 6.2s2.44 3.25 4.29 4.27c1.85 1.02 4 1.53 6.43 1.53 1.5 0 2.98-.3 4.42-.9 1.44-.6 2.6-1.33 3.48-2.2.6-.51.9-1.08.9-1.71 0-.48-.17-.9-.52-1.26s-.78-.54-1.29-.54c-.42 0-.86.13-1.31.4-.69.66-1.49 1.2-2.39 1.62-.9.42-2.08.63-3.52.63-2.11 0-3.89-.66-5.35-1.98-1.46-1.32-2.29-3.07-2.51-5.26h15.89c.57 0 1.07-.19 1.49-.56.42-.37.65-.83.68-1.37-.03-2.16-.56-4.1-1.58-5.84-1-1.73-2.35-3.1-4.04-4.09zm1.09 8.27h-13.32c.39-1.98 1.2-3.44 2.44-4.38s2.69-1.42 4.38-1.42c1.63 0 3.08.51 4.36 1.53 1.28 1.02 1.99 2.32 2.14 3.91v.36zM315.1 18.76c-.57-.4-1.25-.61-2.03-.61-1.69.03-3.19.5-4.51 1.42-1.32.91-2.32 2.1-2.98 3.57v-2.29c0-.6-.2-1.11-.61-1.53-.41-.42-.93-.63-1.56-.63-.6 0-1.11.21-1.51.63-.41.42-.61.93-.61 1.53v19.23c0 .63.2 1.15.59 1.55.39.4.9.61 1.53.61s1.15-.21 1.56-.63c.41-.42.61-.93.61-1.53V29.25c0-1.38.28-2.63.84-3.75.56-1.12 1.28-2.01 2.17-2.65.89-.64 1.8-.97 2.73-.97.36 0 .86.1 1.49.31.54.18.95.27 1.22.27.54 0 1-.19 1.38-.56.38-.37.56-.92.56-1.64-.01-.6-.3-1.1-.87-1.5zM267.07 19.72c-1.66-1.05-3.51-1.57-5.55-1.57-1.57 0-3.04.39-4.42 1.17-1.38.78-2.44 1.71-3.16 2.79V11.14c0-.6-.2-1.11-.61-1.53-.41-.42-.93-.63-1.56-.63s-1.14.2-1.53.61c-.39.4-.59.92-.59 1.55v29.25c0 .63.2 1.15.61 1.55.41.4.91.61 1.51.61.63 0 1.15-.21 1.56-.63.41-.42.61-.93.61-1.53v-1.3c.84 1.02 1.94 1.87 3.3 2.56 1.35.69 2.81 1.03 4.38 1.03 1.99 0 3.81-.52 5.46-1.57 1.66-1.05 2.96-2.52 3.91-4.4.95-1.89 1.42-4 1.42-6.34s-.47-4.43-1.42-6.29c-.96-1.85-2.27-3.31-3.92-4.36zm.29 14.9c-.62 1.27-1.48 2.28-2.6 3.01s-2.36 1.1-3.75 1.1c-1.41 0-2.68-.37-3.79-1.1-1.11-.73-1.98-1.73-2.6-2.99-.62-1.26-.93-2.68-.93-4.27 0-1.59.31-3 .93-4.25.62-1.24 1.48-2.22 2.6-2.94 1.11-.72 2.38-1.08 3.79-1.08 1.38 0 2.63.36 3.75 1.08 1.12.72 1.98 1.71 2.6 2.97.62 1.26.93 2.67.93 4.22 0 1.55-.31 2.98-.93 4.25zM236.23 18.29c-1.72 0-3.34.51-4.88 1.53s-2.63 2.16-3.3 3.42c-1.11-3.3-3.54-4.94-7.27-4.94-1.53 0-2.96.4-4.27 1.19-1.31.79-2.36 1.78-3.14 2.94v-1.57c0-.6-.2-1.11-.61-1.53-.41-.42-.93-.63-1.56-.63-.6 0-1.11.21-1.51.63-.41.42-.61.93-.61 1.53v19.23c0 .63.2 1.15.59 1.55.39.4.9.61 1.54.61.63 0 1.15-.21 1.56-.63.41-.42.61-.93.61-1.53v-12c0-1.65.58-3.03 1.74-4.16 1.16-1.12 2.63-1.69 4.4-1.69 1.75 0 2.99.53 3.75 1.6.76 1.07 1.13 2.48 1.13 4.25v12c0 .63.2 1.15.59 1.55.39.4.9.61 1.53.61s1.15-.21 1.56-.63c.41-.42.61-.93.61-1.53V28.13c0-1.08.26-2.07.79-2.97.53-.9 1.26-1.61 2.21-2.13.95-.52 2.01-.79 3.18-.79 3.31 0 4.97 1.96 4.97 5.89v11.95c0 .6.2 1.11.61 1.53.41.42.93.63 1.56.63s1.14-.2 1.53-.61c.39-.41.59-.92.59-1.55v-12c0-6.53-2.63-9.79-7.9-9.79zM199.39 19.63c-1.69-.99-3.49-1.48-5.42-1.48-1.96 0-3.78.51-5.49 1.53-1.7 1.02-3.07 2.48-4.11 4.38-1.04 1.9-1.56 4.11-1.56 6.63 0 2.31.5 4.37 1.51 6.2s2.44 3.25 4.29 4.27c1.85 1.02 4 1.53 6.43 1.53 1.5 0 2.98-.3 4.42-.9 1.44-.6 2.6-1.33 3.48-2.2.6-.51.9-1.08.9-1.71 0-.48-.17-.9-.52-1.26s-.77-.54-1.29-.54c-.42 0-.86.13-1.31.4-.69.66-1.49 1.2-2.39 1.62-.9.42-2.08.63-3.52.63-2.11 0-3.89-.66-5.35-1.98-1.46-1.32-2.29-3.07-2.51-5.26h15.89c.57 0 1.07-.19 1.49-.56.42-.37.65-.83.68-1.37-.03-2.16-.56-4.1-1.58-5.84-1-1.73-2.35-3.1-4.04-4.09zm1.09 8.27h-13.32c.39-1.98 1.2-3.44 2.44-4.38s2.69-1.42 4.38-1.42c1.63 0 3.08.51 4.36 1.53 1.28 1.02 1.99 2.32 2.14 3.91v.36z"/>
    <defs>
        <linearGradient id="paint0_linear" x1="-8.419" x2="68.88" y1="69.144" y2="15.018" gradientUnits="userSpaceOnUse">
            <stop stop-color="#3EC2FE"/>
            <stop offset=".981" stop-color="#3E73FE"/>
        </linearGradient>
    </defs>
</svg>
